<svg width="20" height="20" viewBox="0 0 20 20" fill="none" xmlns="http://www.w3.org/2000/svg">
<path d="M19.3461 3.74141C19.3371 3.5885 19.2724 3.4442 19.1641 3.3359C19.0558 3.2276 18.9115 3.16284 18.7586 3.15391C14.7148 2.91953 11.468 4.14922 10.0726 6.45234C9.15076 7.975 9.15233 9.82422 10.0601 11.5883C9.54334 12.2034 9.16569 12.9229 8.95311 13.6977L7.68201 12.4219C8.29295 11.1461 8.26951 9.81641 7.60389 8.71172C6.57264 7.00938 4.19217 6.09688 1.2367 6.27031C1.0838 6.27924 0.939499 6.34401 0.831196 6.45231C0.722894 6.56061 0.658131 6.70491 0.649201 6.85781C0.474983 9.81328 1.38826 12.1938 3.09061 13.225C3.65234 13.5683 4.2979 13.75 4.95623 13.75C5.59521 13.7421 6.22424 13.5907 6.79686 13.307L8.74998 15.2602V17.5C8.74998 17.6658 8.81583 17.8247 8.93304 17.9419C9.05025 18.0592 9.20922 18.125 9.37498 18.125C9.54074 18.125 9.69971 18.0592 9.81693 17.9419C9.93414 17.8247 9.99998 17.6658 9.99998 17.5V15.1961C9.99714 14.2018 10.3355 13.2366 10.9586 12.4617C11.7624 12.8818 12.654 13.1067 13.5609 13.118C14.4378 13.1208 15.2984 12.8813 16.0476 12.4258C18.3508 11.032 19.5836 7.78516 19.3461 3.74141ZM3.73514 12.1562C2.5367 11.4305 1.85858 9.7125 1.87498 7.5C4.08748 7.48125 5.80545 8.16172 6.53123 9.36016C6.91014 9.98516 6.97186 10.7141 6.72342 11.4648L4.81639 9.55781C4.69823 9.44555 4.54088 9.38389 4.37791 9.38597C4.21493 9.38806 4.05922 9.45373 3.94397 9.56898C3.82871 9.68423 3.76304 9.83995 3.76096 10.0029C3.75887 10.1659 3.82053 10.3232 3.9328 10.4414L5.83983 12.3484C5.08905 12.5969 4.36092 12.5352 3.73514 12.1562ZM15.4 11.3578C14.3531 11.9914 13.1226 12.0398 11.8726 11.5141L16.0672 7.31875C16.1794 7.20059 16.2411 7.04324 16.239 6.88027C16.2369 6.71729 16.1713 6.56158 16.056 6.44633C15.9408 6.33107 15.785 6.26541 15.6221 6.26332C15.4591 6.26123 15.3017 6.32289 15.1836 6.43516L10.9883 10.625C10.4601 9.375 10.5078 8.14375 11.1445 7.09766C12.2336 5.30078 14.8164 4.29922 18.1234 4.37656C18.1984 7.68281 17.1984 10.2688 15.4 11.3578Z" fill="#6D6D6D"/>
</svg>
